<svg width="48" height="48" xmlns="http://www.w3.org/2000/svg" xmlns:xlink="http://www.w3.org/1999/xlink">
    <defs>
        <path id="a" d="m0,0l48,0l0,48l-48,0l0,-48z"/>
    </defs>
    <clipPath id="b">
        <use id="svg_1" xlink:href="#a"/>
    </clipPath>
    <g>
        <title>background</title>
        <rect fill="none" id="canvas_background" height="402" width="582" y="-1" x="-1"/>
    </g>
    <g>
        <title>Layer 1</title>
        <path fill="#d9534f" stroke="null" id="svg_2"
              d="m40,8l-32,0c-2.21,0 -3.98,1.79 -3.98,4l-0.02,24c0,2.21 1.79,4 4,4l32,0c2.21,0 4,-1.79 4,-4l0,-24c0,-2.21 -1.79,-4 -4,-4zm-23,22l-2.4,0l-5.1,-7l0,7l-2.5,0l0,-12l2.5,0l5,7l0,-7l2.5,0l0,12zm10,-9.49l-5,0l0,2.24l5,0l0,2.51l-5,0l0,2.23l5,0l0,2.51l-8,0l0,-12l8,0l0,2.51zm14,7.49c0,1.1 -0.9,2 -2,2l-8,0c-1.1,0 -2,-0.9 -2,-2l0,-10l2.5,0l0,9.01l2.25,0l0,-7.02l2.5,0l0,7.02l2.25,0l0,-9.01l2.5,0l0,10z"
              clip-path="url(#b)"/>
    </g>
</svg>