<svg width="48" height="48" xmlns="http://www.w3.org/2000/svg">

    <g>
        <title>background</title>
        <rect fill="none" id="canvas_background" height="402" width="582" y="-1" x="-1"/>
    </g>
    <g>
        <title>Layer 1</title>
        <path fill-rule="evenodd" stroke-width="0" stroke-linecap="round" stroke="#ffffff" fill="#d9534f" id="svg_1"
              d="m35.555,32.1a11.979,11.979 0 0 1 -23.555,-3.243a7.933,7.933 0 0 1 0.485,-2.924c1.158,-7.338 8.3,-7.87 4.315,-18.933c0,0 6.65,1.727 8,12.143c0,0 4.919,-0.163 1.6,-7.286a21.311,21.311 0 0 1 9.6,15.143a24.911,24.911 0 0 1 -0.445,5.1z"
              class="vi-primary"/>
        <path fill="#0c0058" fill-rule="evenodd" stroke-width="0" stroke-linecap="round" stroke="#ffffff" id="svg_2"
              d="m31,33.5a7.5,7.5 0 0 1 -14.975,0.484l-0.025,0.016s-0.075,-3.272 0,-4c0.684,-6.611 2.6,-9.563 5,-14c0.067,-2.639 -1.115,7.273 5,10a8.188,8.188 0 0 1 5,7.5z"
              class="vi-accent"/>
    </g>
</svg>